<svg xmlns="http://www.w3.org/2000/svg" width="32" height="32" viewBox="0 0 32 32" fill="none">
<g clip-path="url(#clip0_46_313)">
<path d="M6.2947 17.1746C5.47736 18.7813 6.40536 19.5493 8.5227 20.8613C10.3227 21.9733 12.8094 22.38 14.4067 22.5426C13.752 23.172 16.752 20.2866 8.11203 28.5973C6.28003 30.3533 9.22936 33.1706 11.06 31.452L16.016 26.672C17.9134 28.4973 19.732 30.2466 20.972 31.4586C22.804 33.184 25.752 30.3906 23.94 28.604C23.804 28.4746 17.224 22.1626 17.6254 22.5493C19.2427 22.3866 21.692 21.956 23.4707 20.868L23.4694 20.8666C25.5867 19.548 26.5147 18.7813 25.7094 17.1746C25.2227 16.2626 23.9107 15.5 22.164 16.8186C22.164 16.8186 19.8054 18.6253 16.0014 18.6253C12.196 18.6253 9.8387 16.8186 9.8387 16.8186C8.09336 15.4933 6.77603 16.2626 6.2947 17.1746Z" fill="#290247"/>
<path d="M15.9987 16.1893C20.636 16.1893 24.4227 12.5653 24.4227 8.104C24.4227 3.624 20.636 0 15.9987 0C11.36 0 7.57336 3.624 7.57336 8.104C7.57336 12.5653 11.36 16.1893 15.9987 16.1893ZM15.9987 4.10533C18.2774 4.10533 20.136 5.89333 20.136 8.104C20.136 10.296 18.2774 12.084 15.9987 12.084C13.72 12.084 11.8614 10.296 11.8614 8.104C11.86 5.892 13.7187 4.10533 15.9987 4.10533Z" fill="#290247"/>
</g>
<defs>
<clipPath id="clip0_46_313">
<rect width="32" height="32" fill="white"/>
</clipPath>
</defs>
</svg>