<svg width="105" height="40" viewBox="0 0 105 40" fill="none" xmlns="http://www.w3.org/2000/svg">
<path d="M50.1961 12.1231C49.912 12.2462 49.5538 12.3385 49.1214 12.4001C48.7014 12.4616 48.2629 12.4924 47.8058 12.4924C44.7053 12.4924 43.155 11.1385 43.155 8.43082V7.13851C43.155 6.51082 43.0685 6.04928 42.8955 5.7539C42.7226 5.44621 42.3767 5.29236 41.8579 5.29236H41.6726V4.73851H43.8961C44.3408 4.73851 44.6805 4.81236 44.9153 4.96005C45.15 5.10775 45.3167 5.3539 45.4155 5.69851C45.5144 6.03082 45.5638 6.51082 45.5638 7.13851V8.61544C45.5638 9.60005 45.7985 10.357 46.2679 10.8862C46.7497 11.4031 47.3797 11.6616 48.1579 11.6616C48.8744 11.6616 49.5538 11.5385 50.1961 11.2924V4.73851H52.605V16.9231H50.1961V12.1231ZM55.738 7.13851C55.738 6.51082 55.6515 6.04928 55.4786 5.7539C55.3056 5.44621 54.9597 5.29236 54.4409 5.29236H54.2556V4.73851H56.4791C56.9239 4.73851 57.2636 4.81236 57.4983 4.96005C57.733 5.10775 57.8997 5.3539 57.9986 5.69851C58.0974 6.03082 58.1468 6.51082 58.1468 7.13851V14.5231L63.5203 4.73851H65.7439V16.9231H63.335V7.13851L57.9615 16.9231H55.738V7.13851ZM71.4135 5.56928H70.098C69.4062 5.56928 68.875 5.74159 68.5044 6.08621C68.1462 6.43082 67.9671 6.99698 67.9671 7.78467H67.4112V6.21544C67.4112 5.23082 67.9362 4.73851 68.9862 4.73851H77.695V5.56928H73.8224V16.9231H71.4135V5.56928ZM88.1246 16.997C87.3464 16.997 86.6423 16.837 86.0123 16.517C85.3823 16.1847 84.8696 15.5447 84.4743 14.597L84.0481 13.5631H79.1193L77.5999 16.9231H76.6364L82.1025 4.73851H82.9364L87.087 14.597C87.5564 15.7416 88.1987 16.357 89.014 16.4431V16.9047C88.7917 16.9662 88.4952 16.997 88.1246 16.997ZM79.5084 12.7324H83.6961L81.6578 7.9139L79.5084 12.7324ZM90.2454 7.13851C90.2454 6.51082 90.159 6.04928 89.986 5.7539C89.8131 5.44621 89.4672 5.29236 88.9484 5.29236H88.7631V4.73851H90.9866C91.4313 4.73851 91.771 4.81236 92.0058 4.96005C92.2405 5.10775 92.4072 5.3539 92.506 5.69851C92.6049 6.03082 92.6543 6.51082 92.6543 7.13851V14.5231L98.0278 4.73851H100.251V16.9231H97.8425V7.13851L92.469 16.9231H90.2454V7.13851ZM95.2299 3.90774C94.6369 3.90774 94.1119 3.7539 93.6549 3.44621C93.1978 3.12621 92.8519 2.70159 92.6172 2.17236L93.136 1.78467C93.346 2.04313 93.624 2.26467 93.9699 2.44928C94.3281 2.62159 94.7481 2.70774 95.2299 2.70774C95.7116 2.70774 96.1255 2.62159 96.4713 2.44928C96.8296 2.26467 97.1137 2.04313 97.3237 1.78467L97.8425 2.17236C97.6078 2.70159 97.2619 3.12621 96.8049 3.44621C96.3478 3.7539 95.8228 3.90774 95.2299 3.90774ZM53.3832 37.1077C52.605 37.1077 51.8576 36.9539 51.1411 36.6462C50.437 36.3262 49.6773 35.7416 48.862 34.8924L45.8788 31.7908V36.9231H43.47L43.4514 27.1385C43.4514 26.5108 43.365 26.0493 43.192 25.7539C43.0191 25.4462 42.6732 25.2924 42.1544 25.2924H41.9691V24.7385H44.1926C44.625 24.7385 44.9585 24.8124 45.1932 24.9601C45.4403 25.1077 45.6132 25.3539 45.712 25.6985C45.8232 26.0431 45.8788 26.5231 45.8788 27.1385V30.6462L49.0844 26.677C49.5414 26.0862 50.0294 25.6185 50.5482 25.2739C51.0794 24.917 51.6847 24.7385 52.3641 24.7385H53.6611V25.3847C52.8953 25.3847 52.2344 25.4831 51.6785 25.6801C51.135 25.8647 50.6655 26.2031 50.2703 26.6954L47.5094 30.0924L51.7897 34.5231C52.2467 35.0277 52.7594 35.4708 53.3276 35.8524C53.9082 36.2216 54.3776 36.4308 54.7358 36.4801V36.9231C54.3653 37.0462 53.9144 37.1077 53.3832 37.1077ZM56.299 27.1385C56.299 26.5108 56.2125 26.0493 56.0395 25.7539C55.8666 25.4462 55.5207 25.2924 55.0019 25.2924H54.8166V24.7385H57.0401C57.4848 24.7385 57.8245 24.8124 58.0592 24.9601C58.294 25.1077 58.4607 25.3539 58.5595 25.6985C58.6584 26.0308 58.7078 26.5108 58.7078 27.1385V30.1847H63.7107V24.7385H66.1195V34.5231C66.1195 35.1508 66.206 35.6185 66.379 35.9262C66.5519 36.2216 66.8978 36.3693 67.4166 36.3693H67.6019V36.9231H65.3784C64.9337 36.9231 64.594 36.8554 64.3592 36.7201C64.1245 36.5724 63.9578 36.3324 63.859 36.0001C63.7601 35.6554 63.7107 35.1631 63.7107 34.5231V31.0154H58.7078V36.9231H56.299V27.1385ZM69.635 27.1385C69.635 26.5108 69.5486 26.0493 69.3756 25.7539C69.2027 25.4462 68.8568 25.2924 68.338 25.2924H68.1527V24.7385H70.3762C70.8209 24.7385 71.1606 24.8124 71.3953 24.9601C71.63 25.1077 71.7968 25.3539 71.8956 25.6985C71.9944 26.0308 72.0439 26.5108 72.0439 27.1385V34.5231L77.4174 24.7385H79.6409V36.9231H77.2321V27.1385L71.8586 36.9231H69.635V27.1385ZM82.7721 27.1385C82.7721 26.5108 82.6856 26.0493 82.5127 25.7539C82.3397 25.4462 81.9938 25.2924 81.475 25.2924H81.2897V24.7385H89.2388C90.2888 24.7385 90.8138 25.2308 90.8138 26.2154V27.7847H90.258C90.258 27.0093 90.0603 26.4493 89.665 26.1047C89.2821 25.7477 88.7077 25.5693 87.9418 25.5693H85.1809V36.9231H82.7721V27.1385ZM92.8511 27.1385C92.8511 26.5108 92.7647 26.0493 92.5917 25.7539C92.4188 25.4462 92.0729 25.2924 91.5541 25.2924H91.3688V24.7385H93.5923C94.037 24.7385 94.3767 24.8124 94.6115 24.9601C94.8462 25.1077 95.0129 25.3539 95.1117 25.6985C95.2106 26.0308 95.26 26.5108 95.26 27.1385V34.5231L100.634 24.7385H102.857V36.9231H100.448V27.1385L95.0747 36.9231H92.8511V27.1385Z" fill="white"/>
<path d="M0 4.61523H13.8971L12.3529 21.5383H0V4.61523Z" fill="white"/>
<path d="M16.2132 4.61523H19.3015L20.0735 21.5383H15.4412L16.2132 4.61523Z" fill="white"/>
<path d="M22.3896 4.61523H25.4779V21.5383H23.1617L22.3896 4.61523Z" fill="white"/>
<path d="M32.4264 4.61523H27.7941V21.5383H32.4264V4.61523Z" fill="white"/>
<path d="M33.9707 6.15404L35.4917 5.88867L37.8308 21.5387H36.2867L33.9707 6.15404Z" fill="white"/>
<path d="M4.88547 25.5383C4.88547 25.3291 4.85665 25.1752 4.799 25.0768C4.74135 24.9741 4.62606 24.9229 4.45312 24.9229H4.39136V24.7998H7.23253V27.6921H6.67665V25.046H5.44136V27.6921H4.88547V25.5383ZM9.31512 27.7537C9.03511 27.7537 8.79217 27.688 8.58629 27.5568C8.3804 27.4214 8.22393 27.2388 8.11688 27.0091C8.00981 26.7794 7.95629 26.5249 7.95629 26.246C7.95629 25.9671 8.00981 25.7126 8.11688 25.4829C8.22393 25.2532 8.3804 25.0726 8.58629 24.9414C8.79217 24.806 9.03511 24.7383 9.31512 24.7383C9.59511 24.7383 9.83805 24.806 10.0439 24.9414C10.2498 25.0726 10.4063 25.2532 10.5134 25.4829C10.6204 25.7126 10.6739 25.9671 10.6739 26.246C10.6739 26.5249 10.6204 26.7794 10.5134 27.0091C10.4063 27.2388 10.2498 27.4214 10.0439 27.5568C9.83805 27.688 9.59511 27.7537 9.31512 27.7537ZM9.31512 27.5075C9.46746 27.5075 9.60129 27.4521 9.71659 27.3414C9.83599 27.2306 9.92659 27.0788 9.98835 26.886C10.0542 26.6932 10.0872 26.4798 10.0872 26.246C10.0872 26.0121 10.0542 25.7988 9.98835 25.606C9.92659 25.4132 9.83599 25.2614 9.71659 25.1506C9.60129 25.0398 9.46746 24.9844 9.31512 24.9844C9.16276 24.9844 9.02688 25.0398 8.90747 25.1506C8.79217 25.2614 8.70158 25.4132 8.6357 25.606C8.57394 25.7988 8.54306 26.0121 8.54306 26.246C8.54306 26.4798 8.57394 26.6932 8.6357 26.886C8.70158 27.0788 8.79217 27.2306 8.90747 27.3414C9.02688 27.4521 9.16276 27.5075 9.31512 27.5075ZM13.665 27.7537C13.3315 27.7537 13.033 27.5895 12.7694 27.2614L12.0592 26.3691V27.6921H11.5033V25.5383C11.5033 25.3291 11.4744 25.1752 11.4168 25.0768C11.3592 24.9741 11.2439 24.9229 11.0709 24.9229H10.9474V24.7998H11.5033C11.6556 24.7998 11.7689 24.8203 11.843 24.8614C11.9212 24.8983 11.9768 24.968 12.0097 25.0706C12.0427 25.1732 12.0592 25.3291 12.0592 25.5383V26.2768L12.8312 25.1998C12.9259 25.0686 13.035 24.9701 13.1586 24.9044C13.2862 24.8348 13.4447 24.7998 13.6342 24.7998H13.7886V24.9537C13.5497 24.9537 13.3644 25.046 13.2327 25.2306L12.5533 26.1844L13.2636 27.0768C13.3789 27.2244 13.4921 27.3394 13.6033 27.4214C13.7186 27.5034 13.8421 27.5548 13.9739 27.5752V27.6921C13.8833 27.7332 13.7803 27.7537 13.665 27.7537ZM14.6722 28.7383C14.874 28.7383 15.0387 28.6911 15.1663 28.5968C15.2981 28.5064 15.4114 28.3383 15.506 28.0921L15.6295 27.7537L14.6413 25.3537C14.5261 25.0583 14.2996 24.8941 13.9619 24.8614V24.7383H14.4869C14.8452 24.7383 15.0922 24.9024 15.2281 25.2306L15.9322 26.9352L16.7104 24.7998H17.0192L15.8148 28.0921C15.6955 28.4163 15.5638 28.6357 15.4196 28.7506C15.2755 28.8655 15.0881 28.9229 14.8575 28.9229H14.6722V28.7383ZM17.7028 25.5383C17.7028 25.3291 17.6741 25.1752 17.6164 25.0768C17.5588 24.9741 17.4434 24.9229 17.2705 24.9229H17.2087V24.7998H20.0499V27.6921H19.494V25.046H18.2587V27.6921H17.7028V25.5383ZM21.6321 27.7537C21.5004 27.7537 21.3666 27.7271 21.2307 27.6737C21.0948 27.6163 20.9774 27.524 20.8786 27.3968C20.784 27.2695 20.7366 27.1014 20.7366 26.8921C20.7366 26.5803 20.8808 26.3588 21.1689 26.2275C21.4614 26.0963 21.8421 26.0306 22.3116 26.0306H22.4968C22.4968 25.6286 22.4413 25.3537 22.3301 25.206C22.2189 25.0583 22.0583 24.9844 21.8483 24.9844C21.663 24.9844 21.5148 25.0234 21.4036 25.1014C21.2924 25.1794 21.2143 25.3148 21.1689 25.5075H20.891C20.891 25.368 20.8993 25.2594 20.9157 25.1814C20.9322 25.0994 20.9754 25.0234 21.0454 24.9537C21.1195 24.8798 21.241 24.8264 21.4098 24.7937C21.5827 24.7568 21.7702 24.7383 21.9718 24.7383C22.3054 24.7383 22.569 24.8286 22.7624 25.0091C22.9561 25.1855 23.0527 25.526 23.0527 26.0306V27.6921H22.7439L22.5277 27.4152H22.4968C22.4227 27.5095 22.3137 27.5895 22.1695 27.6552C22.0254 27.7209 21.8463 27.7537 21.6321 27.7537ZM21.9101 27.4768C22.046 27.4768 22.1593 27.444 22.2498 27.3783C22.3404 27.3126 22.4227 27.2224 22.4968 27.1075V26.2768H22.3116C22.0069 26.2768 21.766 26.3341 21.5889 26.4491C21.4119 26.5598 21.3233 26.7075 21.3233 26.8921C21.3233 27.0809 21.3789 27.2264 21.4901 27.3291C21.6054 27.4275 21.7455 27.4768 21.9101 27.4768ZM24.0005 25.5383C24.0005 25.3291 23.9718 25.1752 23.914 25.0768C23.8564 24.9741 23.7411 24.9229 23.5682 24.9229H23.4755V24.7998H24.0005C24.1529 24.7998 24.2661 24.8203 24.3402 24.8614C24.4185 24.8983 24.4741 24.968 24.507 25.0706C24.54 25.1732 24.5564 25.3291 24.5564 25.5383V27.1383L25.8535 24.7998H26.4093V27.6921H25.8535V25.3537L24.5564 27.6921H24.0005V25.5383ZM25.2049 24.486C24.8509 24.486 24.5833 24.3218 24.402 23.9937L24.5255 23.9014C24.608 23.9834 24.7006 24.0449 24.8034 24.086C24.9064 24.1271 25.0403 24.1475 25.2049 24.1475C25.3697 24.1475 25.5036 24.1271 25.6064 24.086C25.7094 24.0449 25.802 23.9834 25.8843 23.9014L26.0079 23.9937C25.8267 24.3218 25.5591 24.486 25.2049 24.486ZM28.083 25.046H27.7742C27.5807 25.046 27.4241 25.1014 27.3048 25.2121C27.1854 25.3188 27.1256 25.4686 27.1256 25.6614H27.0021V25.2921C27.0021 24.964 27.1565 24.7998 27.4654 24.7998H29.658V25.046H28.6389V27.6921H28.083V25.046ZM31.2389 27.7537C30.9589 27.7537 30.7222 27.688 30.5286 27.5568C30.3351 27.4214 30.1889 27.2409 30.09 27.0152C29.9912 26.7855 29.9418 26.5291 29.9418 26.246C29.9418 25.9671 29.9912 25.7126 30.09 25.4829C30.1889 25.2532 30.3309 25.0726 30.5162 24.9414C30.7057 24.806 30.926 24.7383 31.1771 24.7383C31.5931 24.7383 31.9019 24.8552 32.1036 25.0891C32.3096 25.3188 32.4124 25.6532 32.4124 26.0921L32.4 26.3383H30.5286C30.5286 26.6829 30.6027 26.964 30.7509 27.1814C30.8992 27.3988 31.103 27.5075 31.3624 27.5075C31.556 27.5075 31.7186 27.4664 31.8503 27.3844C31.9862 27.3024 32.1119 27.1794 32.2271 27.0152L32.3506 27.1075C32.2147 27.3332 32.0563 27.4972 31.875 27.5998C31.6939 27.7024 31.4819 27.7537 31.2389 27.7537ZM31.8256 26.0921C31.8256 25.7311 31.7722 25.4563 31.665 25.2675C31.558 25.0788 31.3954 24.9844 31.1771 24.9844C31.0536 24.9844 30.9424 25.0337 30.8436 25.1321C30.7447 25.2264 30.6666 25.3578 30.6089 25.526C30.5554 25.6941 30.5286 25.8829 30.5286 26.0921H31.8256ZM17.3687 30.1537C17.3687 29.9444 17.3398 29.7906 17.2822 29.6921C17.2246 29.5895 17.1093 29.5383 16.9363 29.5383H16.8437V29.4152H17.3687C17.5211 29.4152 17.6343 29.4357 17.7084 29.4768C17.7867 29.5137 17.8423 29.5834 17.8751 29.686C17.908 29.7886 17.9246 29.9444 17.9246 30.1537V31.7537L19.2216 29.4152H19.7775V32.3075H19.2216V29.9691L17.9246 32.3075H17.3687V30.1537ZM10.7147 35.7352C10.5294 35.8091 10.3235 35.846 10.0971 35.846C9.78002 35.846 9.51443 35.7824 9.30032 35.6552C9.09032 35.524 8.98532 35.2901 8.98532 34.9537V34.7691C8.98532 34.5598 8.95649 34.406 8.89885 34.3075C8.8412 34.2049 8.72591 34.1537 8.55297 34.1537H8.49121V34.0306H9.01621C9.16855 34.0306 9.28179 34.0511 9.35591 34.0921C9.43414 34.1291 9.48972 34.1988 9.52268 34.3014C9.55561 34.404 9.57209 34.5598 9.57209 34.7691V35.0152C9.57209 35.2163 9.62561 35.364 9.73268 35.4583C9.83973 35.5526 9.97149 35.5998 10.128 35.5998C10.3338 35.5998 10.5294 35.5629 10.7147 35.4891V34.0306H11.2706V36.9229H10.7147V35.7352ZM12.2477 34.7691C12.2477 34.5598 12.2189 34.406 12.1613 34.3075C12.1036 34.2049 11.9883 34.1537 11.8154 34.1537H11.7228V34.0306H12.2477C12.4001 34.0306 12.5133 34.0511 12.5875 34.0921C12.6657 34.1291 12.7213 34.1988 12.7542 34.3014C12.7872 34.404 12.8036 34.5598 12.8036 34.7691V36.3691L14.1007 34.0306H14.6566V36.9229H14.1007V34.5844L12.8036 36.9229H12.2477V34.7691ZM16.3303 34.2768H16.0214C15.8278 34.2768 15.6714 34.3321 15.552 34.4429C15.4326 34.5495 15.3729 34.6994 15.3729 34.8921H15.2493V34.5229C15.2493 34.1948 15.4037 34.0306 15.7126 34.0306H17.9053V34.2768H16.8861V36.9229H16.3303V34.2768ZM19.1321 36.9844C19.0003 36.9844 18.8665 36.9578 18.7306 36.9044C18.5947 36.8471 18.4774 36.7548 18.3785 36.6275C18.2839 36.5003 18.2365 36.3321 18.2365 36.1229C18.2365 35.8111 18.3805 35.5895 18.6688 35.4583C18.9611 35.3271 19.3421 35.2614 19.8115 35.2614H19.9968C19.9968 34.8594 19.9412 34.5844 19.83 34.4368C19.7188 34.2891 19.5582 34.2152 19.3482 34.2152C19.1629 34.2152 19.0147 34.2541 18.9035 34.3321C18.7924 34.4101 18.7141 34.5455 18.6688 34.7383H18.3909C18.3909 34.5988 18.3991 34.4901 18.4156 34.4121C18.4321 34.3301 18.4753 34.2541 18.5453 34.1844C18.6194 34.1106 18.7409 34.0572 18.9097 34.0244C19.0826 33.9875 19.2699 33.9691 19.4718 33.9691C19.8053 33.9691 20.0689 34.0594 20.2624 34.2398C20.4558 34.4163 20.5526 34.7568 20.5526 35.2614V36.9229H20.2438L20.0276 36.646H19.9968C19.9226 36.7403 19.8135 36.8203 19.6694 36.886C19.5253 36.9517 19.3462 36.9844 19.1321 36.9844ZM19.41 36.7075C19.5459 36.7075 19.6591 36.6748 19.7497 36.6091C19.8403 36.5434 19.9226 36.4532 19.9968 36.3383V35.5075H19.8115C19.5068 35.5075 19.2659 35.5649 19.0888 35.6798C18.9117 35.7906 18.8232 35.9383 18.8232 36.1229C18.8232 36.3117 18.8788 36.4572 18.99 36.5598C19.1053 36.6583 19.2452 36.7075 19.41 36.7075ZM21.5004 34.7691C21.5004 34.5598 21.4716 34.406 21.414 34.3075C21.3562 34.2049 21.241 34.1537 21.0681 34.1537H20.9754V34.0306H21.5004C21.6527 34.0306 21.766 34.0511 21.8401 34.0921C21.9183 34.1291 21.9739 34.1988 22.0069 34.3014C22.0398 34.404 22.0563 34.5598 22.0563 34.7691V36.3691L23.3534 34.0306H23.9093V36.9229H23.3534V34.5844L22.0563 36.9229H21.5004V34.7691ZM22.7048 33.7168C22.3506 33.7168 22.083 33.5526 21.9019 33.2244L22.0254 33.1321C22.1077 33.2141 22.2004 33.2757 22.3034 33.3168C22.4062 33.3578 22.5401 33.3783 22.7048 33.3783C22.8694 33.3783 23.0033 33.3578 23.1063 33.3168C23.2091 33.2757 23.3018 33.2141 23.3843 33.1321L23.5078 33.2244C23.3265 33.5526 23.0589 33.7168 22.7048 33.7168ZM25.5829 34.2768H25.2741C25.0805 34.2768 24.924 34.3321 24.8047 34.4429C24.6852 34.5495 24.6256 34.6994 24.6256 34.8921H24.502V34.5229C24.502 34.1948 24.6564 34.0306 24.9653 34.0306H27.1579V34.2768H26.1388V36.9229H25.5829V34.2768ZM28.7388 36.9844C28.4588 36.9844 28.222 36.9188 28.0285 36.7875C27.835 36.6521 27.6888 36.4717 27.59 36.246C27.4911 36.0163 27.4417 35.7598 27.4417 35.4768C27.4417 35.1978 27.4911 34.9434 27.59 34.7137C27.6888 34.484 27.8308 34.3034 28.0161 34.1721C28.2056 34.0367 28.4258 33.9691 28.677 33.9691C29.0929 33.9691 29.4017 34.086 29.6035 34.3198C29.8093 34.5495 29.9123 34.884 29.9123 35.3229L29.9 35.5691H28.0285C28.0285 35.9137 28.1026 36.1947 28.2508 36.4121C28.3991 36.6295 28.6029 36.7383 28.8623 36.7383C29.0558 36.7383 29.2185 36.6972 29.3503 36.6152C29.4861 36.5332 29.6117 36.4101 29.727 36.246L29.8506 36.3383C29.7147 36.564 29.5561 36.728 29.375 36.8306C29.1938 36.9332 28.9817 36.9844 28.7388 36.9844ZM29.3256 35.3229C29.3256 34.9618 29.272 34.6871 29.165 34.4983C29.058 34.3095 28.8952 34.2152 28.677 34.2152C28.5535 34.2152 28.4423 34.2644 28.3435 34.3629C28.2447 34.4572 28.1664 34.5886 28.1088 34.7567C28.0552 34.9249 28.0285 35.1137 28.0285 35.3229H29.3256Z" fill="white"/>
</svg>
