<svg width="58" height="38" viewBox="0 0 58 38" fill="none" xmlns="http://www.w3.org/2000/svg">
<path d="M1.272 28.52C1.272 28.112 1.216 27.812 1.104 27.62C0.992 27.42 0.768 27.32 0.432 27.32H0.192V27.08H1.272C1.568 27.08 1.788 27.12 1.932 27.2C2.084 27.272 2.192 27.408 2.256 27.608C2.32 27.808 2.352 28.112 2.352 28.52V33.92L6.192 27.08H7.272V35H6.192V28.16L2.352 35H1.272V28.52ZM10.7 35.12C10.196 35.12 9.77597 35.036 9.43997 34.868C9.11197 34.7 8.83197 34.464 8.59997 34.16L8.83997 33.98C9.03997 34.18 9.25997 34.34 9.49997 34.46C9.74797 34.58 10.068 34.64 10.46 34.64C11.46 34.64 11.96 34.26 11.96 33.5C11.96 32.74 11.4 32.36 10.28 32.36H9.73997V31.88H10.28C10.768 31.88 11.14 31.792 11.396 31.616C11.652 31.432 11.78 31.16 11.78 30.8C11.78 30.456 11.668 30.192 11.444 30.008C11.22 29.816 10.932 29.72 10.58 29.72C10.14 29.72 9.77597 29.836 9.48797 30.068C9.19997 30.292 9.04397 30.596 9.01997 30.98H8.77997C8.77997 30.588 8.79597 30.304 8.82797 30.128C8.85997 29.952 8.94397 29.796 9.07997 29.66C9.35997 29.38 9.91997 29.24 10.76 29.24C11.376 29.24 11.888 29.364 12.296 29.612C12.712 29.852 12.92 30.248 12.92 30.8C12.92 31.144 12.812 31.428 12.596 31.652C12.388 31.868 12.096 32.024 11.72 32.12C12.16 32.208 12.5 32.372 12.74 32.612C12.98 32.852 13.1 33.148 13.1 33.5C13.1 34.58 12.3 35.12 10.7 35.12ZM16.8689 35.12C16.1009 35.12 15.4889 34.884 15.0329 34.412C14.5769 33.94 14.3489 33.216 14.3489 32.24V31.76C14.3489 30.784 14.4049 30.028 14.5169 29.492C14.6289 28.956 14.8089 28.568 15.0569 28.328C15.3049 28.08 15.6489 27.904 16.0889 27.8L17.8889 27.38C18.1929 27.308 18.4129 27.236 18.5489 27.164C18.6849 27.084 18.7649 26.976 18.7889 26.84H19.0289V27.62C19.0289 27.916 18.9089 28.096 18.6689 28.16L16.5689 28.64C16.2009 28.736 15.9049 28.872 15.6809 29.048C15.4569 29.224 15.2769 29.5 15.1409 29.876C15.0129 30.244 14.9289 30.752 14.8889 31.4H14.9489C15.1009 30.808 15.3449 30.38 15.6809 30.116C16.0249 29.852 16.5009 29.72 17.1089 29.72C17.5249 29.72 17.9049 29.82 18.2489 30.02C18.5929 30.212 18.8689 30.512 19.0769 30.92C19.2849 31.328 19.3889 31.828 19.3889 32.42C19.3889 33.316 19.1569 33.992 18.6929 34.448C18.2369 34.896 17.6289 35.12 16.8689 35.12ZM16.8689 34.64C17.2769 34.64 17.6089 34.472 17.8649 34.136C18.1209 33.8 18.2489 33.228 18.2489 32.42C18.2489 31.636 18.1169 31.072 17.8529 30.728C17.5969 30.376 17.2689 30.2 16.8689 30.2C16.4689 30.2 16.1369 30.376 15.8729 30.728C15.6169 31.072 15.4889 31.636 15.4889 32.42C15.4889 33.228 15.6169 33.8 15.8729 34.136C16.1289 34.472 16.4609 34.64 16.8689 34.64ZM21.0128 30.8C21.0128 30.392 20.9568 30.092 20.8448 29.9C20.7328 29.7 20.5088 29.6 20.1728 29.6H19.9327V29.36H21.0128C21.3168 29.36 21.5448 29.404 21.6968 29.492C21.8568 29.572 21.9688 29.708 22.0328 29.9H22.0928C22.2368 29.716 22.4408 29.56 22.7048 29.432C22.9688 29.304 23.3048 29.24 23.7128 29.24C24.4008 29.24 24.9328 29.52 25.3088 30.08C25.6848 30.632 25.8728 31.332 25.8728 32.18C25.8728 33.036 25.6768 33.74 25.2848 34.292C24.9008 34.844 24.3368 35.12 23.5928 35.12C23.2888 35.12 23.0208 35.088 22.7888 35.024C22.5568 34.96 22.3248 34.872 22.0928 34.76V37.28H21.0128V30.8ZM23.2328 34.64C23.7448 34.64 24.1208 34.416 24.3608 33.968C24.6088 33.52 24.7328 32.924 24.7328 32.18C24.7328 31.444 24.6168 30.852 24.3848 30.404C24.1528 29.948 23.8088 29.72 23.3528 29.72C22.8168 29.72 22.3968 29.96 22.0928 30.44V34.28C22.3328 34.392 22.5408 34.48 22.7168 34.544C22.8928 34.608 23.0648 34.64 23.2328 34.64ZM28.6338 35.12C28.3778 35.12 28.1178 35.068 27.8538 34.964C27.5898 34.852 27.3618 34.672 27.1698 34.424C26.9858 34.176 26.8938 33.848 26.8938 33.44C26.8938 32.832 27.1738 32.4 27.7338 32.144C28.3018 31.888 29.0418 31.76 29.9538 31.76H30.3138C30.3138 30.976 30.2058 30.44 29.9898 30.152C29.7738 29.864 29.4618 29.72 29.0538 29.72C28.6938 29.72 28.4058 29.796 28.1898 29.948C27.9738 30.1 27.8218 30.364 27.7338 30.74H27.1938C27.1938 30.468 27.2098 30.256 27.2418 30.104C27.2738 29.944 27.3578 29.796 27.4938 29.66C27.6378 29.516 27.8738 29.412 28.2018 29.348C28.5378 29.276 28.9018 29.24 29.2938 29.24C29.9418 29.24 30.4538 29.416 30.8298 29.768C31.2058 30.112 31.3938 30.776 31.3938 31.76V35H30.7938L30.3738 34.46H30.3138C30.1698 34.644 29.9578 34.8 29.6778 34.928C29.3978 35.056 29.0498 35.12 28.6338 35.12ZM29.1738 34.58C29.4378 34.58 29.6578 34.516 29.8338 34.388C30.0098 34.26 30.1698 34.084 30.3138 33.86V32.24H29.9538C29.3618 32.24 28.8938 32.352 28.5498 32.576C28.2058 32.792 28.0338 33.08 28.0338 33.44C28.0338 33.808 28.1418 34.092 28.3578 34.292C28.5818 34.484 28.8538 34.58 29.1738 34.58ZM33.2351 30.8C33.2351 30.392 33.1791 30.092 33.0671 29.9C32.9551 29.7 32.7311 29.6 32.3951 29.6H32.2151V29.36H33.2351C33.5311 29.36 33.7511 29.4 33.8951 29.48C34.0471 29.552 34.1551 29.688 34.2191 29.888C34.2831 30.088 34.3151 30.392 34.3151 30.8V31.94H36.7151V29.36H37.7951V33.56C37.7951 33.968 37.8511 34.272 37.9631 34.472C38.0751 34.664 38.2991 34.76 38.6351 34.76H38.8151V35H37.7951C37.4991 35 37.2751 34.964 37.1231 34.892C36.9791 34.812 36.8751 34.672 36.8111 34.472C36.7471 34.272 36.7151 33.968 36.7151 33.56V32.42H34.3151V35H33.2351V30.8ZM39.8679 30.8C39.8679 30.392 39.8119 30.092 39.6999 29.9C39.5879 29.7 39.3639 29.6 39.0279 29.6H38.8479V29.36H39.8679C40.1639 29.36 40.3839 29.4 40.5279 29.48C40.6799 29.552 40.7879 29.688 40.8519 29.888C40.9159 30.088 40.9479 30.392 40.9479 30.8V31.94H43.3479V29.36H44.4279V33.56C44.4279 33.968 44.4839 34.272 44.5959 34.472C44.7079 34.664 44.9319 34.76 45.2679 34.76H45.4479V35H44.4279C44.1319 35 43.9079 34.964 43.7559 34.892C43.6119 34.812 43.5079 34.672 43.4439 34.472C43.3799 34.272 43.3479 33.968 43.3479 33.56V32.42H40.9479V35H39.8679V30.8ZM48.6488 35.12C48.1048 35.12 47.6328 34.992 47.2327 34.736C46.8328 34.472 46.5288 34.116 46.3208 33.668C46.1128 33.22 46.0088 32.724 46.0088 32.18C46.0088 31.636 46.1128 31.14 46.3208 30.692C46.5288 30.244 46.8328 29.892 47.2327 29.636C47.6328 29.372 48.1048 29.24 48.6488 29.24C49.1928 29.24 49.6648 29.372 50.0648 29.636C50.4648 29.892 50.7688 30.244 50.9768 30.692C51.1848 31.14 51.2888 31.636 51.2888 32.18C51.2888 32.724 51.1848 33.22 50.9768 33.668C50.7688 34.116 50.4648 34.472 50.0648 34.736C49.6648 34.992 49.1928 35.12 48.6488 35.12ZM48.6488 34.64C48.9448 34.64 49.2048 34.532 49.4288 34.316C49.6608 34.1 49.8368 33.804 49.9568 33.428C50.0848 33.052 50.1488 32.636 50.1488 32.18C50.1488 31.724 50.0848 31.308 49.9568 30.932C49.8368 30.556 49.6608 30.26 49.4288 30.044C49.2048 29.828 48.9448 29.72 48.6488 29.72C48.3528 29.72 48.0888 29.828 47.8568 30.044C47.6328 30.26 47.4568 30.556 47.3288 30.932C47.2088 31.308 47.1488 31.724 47.1488 32.18C47.1488 32.636 47.2088 33.052 47.3288 33.428C47.4568 33.804 47.6328 34.1 47.8568 34.316C48.0888 34.532 48.3528 34.64 48.6488 34.64ZM54.892 35.12C54.348 35.12 53.888 34.992 53.512 34.736C53.136 34.472 52.852 34.12 52.66 33.68C52.468 33.232 52.372 32.732 52.372 32.18C52.372 31.636 52.468 31.14 52.66 30.692C52.852 30.244 53.128 29.892 53.488 29.636C53.856 29.372 54.284 29.24 54.772 29.24C55.58 29.24 56.18 29.468 56.572 29.924C56.972 30.372 57.172 31.024 57.172 31.88L57.148 32.36H53.512C53.512 33.032 53.656 33.58 53.944 34.004C54.232 34.428 54.628 34.64 55.132 34.64C55.508 34.64 55.824 34.56 56.08 34.4C56.344 34.24 56.588 34 56.812 33.68L57.052 33.86C56.788 34.3 56.48 34.62 56.128 34.82C55.776 35.02 55.364 35.12 54.892 35.12ZM56.032 31.88C56.032 31.176 55.928 30.64 55.72 30.272C55.512 29.904 55.196 29.72 54.772 29.72C54.532 29.72 54.316 29.816 54.124 30.008C53.932 30.192 53.78 30.448 53.668 30.776C53.564 31.104 53.512 31.472 53.512 31.88H56.032Z" fill="white"/>
<path d="M23.5 2.5H34.5C34.7761 2.5 35 2.72386 35 3V19.5619C35 20.009 34.458 20.2313 34.144 19.913L30.268 15.9828C29.6948 15.4015 28.7619 15.3854 28.169 15.9466L23.8437 20.0399C23.5249 20.3416 23 20.1156 23 19.6768V3C23 2.72386 23.2239 2.5 23.5 2.5Z" stroke="white"/>
</svg>
