<svg width="45" height="38" viewBox="0 0 45 38" fill="none" xmlns="http://www.w3.org/2000/svg">
<path d="M17 19C16.7033 19 16.4133 19.088 16.1666 19.2528C15.92 19.4176 15.7277 19.6519 15.6142 19.926C15.5006 20.2001 15.4709 20.5017 15.5288 20.7926C15.5867 21.0836 15.7296 21.3509 15.9393 21.5607C16.1491 21.7704 16.4164 21.9133 16.7074 21.9712C16.9983 22.0291 17.2999 21.9993 17.574 21.8858C17.8481 21.7723 18.0824 21.58 18.2472 21.3334C18.412 21.0867 18.5 20.7967 18.5 20.5C18.5 20.1022 18.342 19.7206 18.0607 19.4393C17.7794 19.158 17.3978 19 17 19ZM28 19C27.7033 19 27.4133 19.088 27.1666 19.2528C26.92 19.4176 26.7277 19.6519 26.6142 19.926C26.5007 20.2001 26.4709 20.5017 26.5288 20.7926C26.5867 21.0836 26.7296 21.3509 26.9393 21.5607C27.1491 21.7704 27.4164 21.9133 27.7074 21.9712C27.9983 22.0291 28.2999 21.9993 28.574 21.8858C28.8481 21.7723 29.0824 21.58 29.2472 21.3334C29.412 21.0867 29.5 20.7967 29.5 20.5C29.5 20.1022 29.342 19.7206 29.0607 19.4393C28.7794 19.158 28.3978 19 28 19ZM29 17.9983V15.9983L18.262 15.9891L17.9406 14.6967L31.0006 12.3632L31 5H15.5287L15.0312 3H11V5H13.4677L16.6982 17.9878L29 17.9983ZM29 7V10.6888L17.4567 12.7514L16.0262 7H29Z" fill="white"/>
<path d="M7.452 35.12C7.076 35.12 6.684 35.02 6.276 34.82C5.868 34.612 5.4 34.232 4.872 33.68L2.352 31.04V35H1.272V28.52C1.272 28.112 1.216 27.812 1.104 27.62C0.992 27.42 0.768 27.32 0.432 27.32H0.192V27.08H1.272C1.568 27.08 1.788 27.12 1.932 27.2C2.084 27.272 2.192 27.408 2.256 27.608C2.32 27.808 2.352 28.112 2.352 28.52V30.86L4.872 28.34L5.112 28.088C5.336 27.856 5.524 27.676 5.676 27.548C5.828 27.412 6.008 27.3 6.216 27.212C6.424 27.124 6.656 27.08 6.912 27.08H7.512V27.38C7.176 27.38 6.884 27.44 6.636 27.56C6.388 27.672 6.1 27.892 5.772 28.22L3.432 30.56L6.192 33.44C6.544 33.8 6.9 34.104 7.26 34.352C7.62 34.592 7.944 34.732 8.232 34.772V35C7.992 35.08 7.732 35.12 7.452 35.12ZM10.8909 35.12C10.3469 35.12 9.87494 34.992 9.47494 34.736C9.07494 34.472 8.77094 34.116 8.56294 33.668C8.35494 33.22 8.25094 32.724 8.25094 32.18C8.25094 31.636 8.35494 31.14 8.56294 30.692C8.77094 30.244 9.07494 29.892 9.47494 29.636C9.87494 29.372 10.3469 29.24 10.8909 29.24C11.4349 29.24 11.9069 29.372 12.3069 29.636C12.7069 29.892 13.0109 30.244 13.2189 30.692C13.4269 31.14 13.5309 31.636 13.5309 32.18C13.5309 32.724 13.4269 33.22 13.2189 33.668C13.0109 34.116 12.7069 34.472 12.3069 34.736C11.9069 34.992 11.4349 35.12 10.8909 35.12ZM10.8909 34.64C11.1869 34.64 11.4469 34.532 11.6709 34.316C11.9029 34.1 12.0789 33.804 12.1989 33.428C12.3269 33.052 12.3909 32.636 12.3909 32.18C12.3909 31.724 12.3269 31.308 12.1989 30.932C12.0789 30.556 11.9029 30.26 11.6709 30.044C11.4469 29.828 11.1869 29.72 10.8909 29.72C10.5949 29.72 10.3309 29.828 10.0989 30.044C9.87494 30.26 9.69894 30.556 9.57094 30.932C9.45094 31.308 9.39094 31.724 9.39094 32.18C9.39094 32.636 9.45094 33.052 9.57094 33.428C9.69894 33.804 9.87494 34.1 10.0989 34.316C10.3309 34.532 10.5949 34.64 10.8909 34.64ZM15.1182 30.8C15.1182 30.392 15.0622 30.092 14.9502 29.9C14.8382 29.7 14.6142 29.6 14.2782 29.6H14.0382V29.36H15.1182C15.4222 29.36 15.6502 29.404 15.8022 29.492C15.9622 29.572 16.0742 29.708 16.1382 29.9H16.1982C16.3422 29.716 16.5462 29.56 16.8102 29.432C17.0742 29.304 17.4102 29.24 17.8182 29.24C18.5062 29.24 19.0382 29.52 19.4142 30.08C19.7902 30.632 19.9782 31.332 19.9782 32.18C19.9782 33.036 19.7822 33.74 19.3902 34.292C19.0062 34.844 18.4422 35.12 17.6982 35.12C17.3942 35.12 17.1262 35.088 16.8942 35.024C16.6622 34.96 16.4302 34.872 16.1982 34.76V37.28H15.1182V30.8ZM17.3382 34.64C17.8502 34.64 18.2262 34.416 18.4662 33.968C18.7142 33.52 18.8382 32.924 18.8382 32.18C18.8382 31.444 18.7222 30.852 18.4902 30.404C18.2582 29.948 17.9142 29.72 17.4582 29.72C16.9222 29.72 16.5022 29.96 16.1982 30.44V34.28C16.4382 34.392 16.6462 34.48 16.8222 34.544C16.9982 34.608 17.1702 34.64 17.3382 34.64ZM23.0633 35.12C22.5593 35.12 22.1393 35.036 21.8033 34.868C21.4753 34.7 21.1953 34.464 20.9633 34.16L21.2033 33.98C21.4033 34.18 21.6233 34.34 21.8633 34.46C22.1113 34.58 22.4313 34.64 22.8233 34.64C23.8233 34.64 24.3233 34.26 24.3233 33.5C24.3233 32.74 23.7633 32.36 22.6433 32.36H22.1033V31.88H22.6433C23.1313 31.88 23.5033 31.792 23.7593 31.616C24.0153 31.432 24.1433 31.16 24.1433 30.8C24.1433 30.456 24.0313 30.192 23.8073 30.008C23.5833 29.816 23.2953 29.72 22.9433 29.72C22.5033 29.72 22.1393 29.836 21.8513 30.068C21.5633 30.292 21.4073 30.596 21.3833 30.98H21.1433C21.1433 30.588 21.1593 30.304 21.1913 30.128C21.2233 29.952 21.3073 29.796 21.4433 29.66C21.7233 29.38 22.2833 29.24 23.1233 29.24C23.7393 29.24 24.2513 29.364 24.6593 29.612C25.0753 29.852 25.2833 30.248 25.2833 30.8C25.2833 31.144 25.1753 31.428 24.9593 31.652C24.7513 31.868 24.4593 32.024 24.0833 32.12C24.5233 32.208 24.8633 32.372 25.1033 32.612C25.3433 32.852 25.4633 33.148 25.4633 33.5C25.4633 34.58 24.6633 35.12 23.0633 35.12ZM27.0242 30.8C27.0242 30.392 26.9682 30.092 26.8562 29.9C26.7442 29.7 26.5202 29.6 26.1842 29.6H26.0042V29.36H27.0242C27.3202 29.36 27.5402 29.4 27.6842 29.48C27.8362 29.552 27.9442 29.688 28.0082 29.888C28.0722 30.088 28.1042 30.392 28.1042 30.8V33.92L30.6242 29.36H31.7042V35H30.6242V30.44L28.1042 35H27.0242V30.8ZM33.5984 30.8C33.5984 30.392 33.5424 30.092 33.4304 29.9C33.3184 29.7 33.0944 29.6 32.7584 29.6H32.5784V29.36H33.5984C33.8944 29.36 34.1144 29.4 34.2584 29.48C34.4104 29.552 34.5184 29.688 34.5824 29.888C34.6464 30.088 34.6784 30.392 34.6784 30.8V31.94H37.0784V29.36H38.1584V33.56C38.1584 33.968 38.2144 34.272 38.3264 34.472C38.4384 34.664 38.6624 34.76 38.9984 34.76H39.1784V35H38.1584C37.8624 35 37.6384 34.964 37.4864 34.892C37.3424 34.812 37.2384 34.672 37.1744 34.472C37.1104 34.272 37.0784 33.968 37.0784 33.56V32.42H34.6784V35H33.5984V30.8ZM41.4072 35.12C41.1512 35.12 40.8912 35.068 40.6272 34.964C40.3632 34.852 40.1352 34.672 39.9432 34.424C39.7592 34.176 39.6672 33.848 39.6672 33.44C39.6672 32.832 39.9472 32.4 40.5072 32.144C41.0752 31.888 41.8152 31.76 42.7272 31.76H43.0872C43.0872 30.976 42.9792 30.44 42.7632 30.152C42.5472 29.864 42.2352 29.72 41.8272 29.72C41.4672 29.72 41.1792 29.796 40.9632 29.948C40.7472 30.1 40.5952 30.364 40.5072 30.74H39.9672C39.9672 30.468 39.9832 30.256 40.0152 30.104C40.0472 29.944 40.1312 29.796 40.2672 29.66C40.4112 29.516 40.6472 29.412 40.9752 29.348C41.3112 29.276 41.6752 29.24 42.0672 29.24C42.7152 29.24 43.2272 29.416 43.6032 29.768C43.9792 30.112 44.1672 30.776 44.1672 31.76V35H43.5672L43.1472 34.46H43.0872C42.9432 34.644 42.7312 34.8 42.4512 34.928C42.1712 35.056 41.8232 35.12 41.4072 35.12ZM41.9472 34.58C42.2112 34.58 42.4312 34.516 42.6072 34.388C42.7832 34.26 42.9432 34.084 43.0872 33.86V32.24H42.7272C42.1352 32.24 41.6672 32.352 41.3232 32.576C40.9792 32.792 40.8072 33.08 40.8072 33.44C40.8072 33.808 40.9152 34.092 41.1312 34.292C41.3552 34.484 41.6272 34.58 41.9472 34.58Z" fill="white"/>
</svg>
